<svg xmlns="http://www.w3.org/2000/svg" xmlns:xlink="http://www.w3.org/1999/xlink" width="800" height="600" viewBox="0 0 800 600">
  <!-- Styles -->
  <style>
    .swimlane { fill: #f5f5f5; stroke: #ccc; stroke-width: 1; }
    .swimlane-title { font-family: Arial, sans-serif; font-size: 14px; font-weight: bold; fill: #333; }
    .process { fill: white; stroke: #666; stroke-width: 1.5; rx: 5; ry: 5; }
    .decision { fill: white; stroke: #666; stroke-width: 1.5; }
    .start-end { fill: #e6f7ff; stroke: #1890ff; stroke-width: 1.5; rx: 20; ry: 20; }
    .arrow { stroke: #333; stroke-width: 1.5; fill: none; marker-end: url(#arrowhead); }
    .text { font-family: Arial, sans-serif; font-size: 10px; fill: #333; text-anchor: middle; }
    .title { font-family: Arial, sans-serif; font-size: 18px; font-weight: bold; fill: #333; text-anchor: middle; }
  </style>
  
  <!-- Arrow marker definition -->
  <defs>
    <marker id="arrowhead" markerWidth="10" markerHeight="7" refX="9" refY="3.5" orient="auto">
      <polygon points="0 0, 10 3.5, 0 7" fill="#333" />
    </marker>
  </defs>
  
  <!-- Title -->
  <text x="400" y="30" class="title">Workflow Utama: Proses Booking</text>
  
  <!-- Swimlanes -->
  <!-- Customer Swimlane -->
  <rect x="50" y="50" width="700" height="120" class="swimlane" />
  <text x="100" y="70" class="swimlane-title">Customer</text>
  
  <!-- System Swimlane -->
  <rect x="50" y="170" width="700" height="120" class="swimlane" />
  <text x="100" y="190" class="swimlane-title">System</text>
  
  <!-- Employee Swimlane -->
  <rect x="50" y="290" width="700" height="120" class="swimlane" />
  <text x="100" y="310" class="swimlane-title">Employee</text>
  
  <!-- Admin Swimlane -->
  <rect x="50" y="410" width="700" height="120" class="swimlane" />
  <text x="100" y="430" class="swimlane-title">Admin</text>
  
  <!-- Start -->
  <circle cx="100" cy="100" r="20" class="start-end" />
  <text x="100" y="104" class="text">Start</text>
  
  <!-- Customer Process: Browse Properties -->
  <rect x="170" y="80" width="100" height="40" class="process" />
  <text x="220" y="104" class="text">Mencari Properti</text>
  
  <!-- Customer Process: Select Property -->
  <rect x="320" y="80" width="100" height="40" class="process" />
  <text x="370" y="104" class="text">Memilih Properti</text>
  
  <!-- Customer Process: Make Booking -->
  <rect x="470" y="80" width="100" height="40" class="process" />
  <text x="520" y="104" class="text">Membuat Booking</text>
  
  <!-- System Process: Validate Booking -->
  <rect x="170" y="210" width="100" height="40" class="process" />
  <text x="220" y="234" class="text">Validasi Booking</text>
  
  <!-- System Decision: Is Valid? -->
  <polygon points="370,210 390,230 370,250 350,230" class="decision" />
  <text x="370" y="234" class="text">Valid?</text>
  
  <!-- System Process: Create Booking Record -->
  <rect x="470" y="210" width="100" height="40" class="process" />
  <text x="520" y="234" class="text">Membuat Record</text>
  
  <!-- Employee Process: Review Booking -->
  <rect x="170" y="330" width="100" height="40" class="process" />
  <text x="220" y="354" class="text">Review Booking</text>
  
  <!-- Employee Decision: Approve? -->
  <polygon points="370,330 390,350 370,370 350,350" class="decision" />
  <text x="370" y="354" class="text">Setuju?</text>
  
  <!-- Employee Process: Process Payment -->
  <rect x="470" y="330" width="100" height="40" class="process" />
  <text x="520" y="354" class="text">Proses Pembayaran</text>
  
  <!-- Admin Process: Monitor Bookings -->
  <rect x="170" y="450" width="100" height="40" class="process" />
  <text x="220" y="474" class="text">Monitor Booking</text>
  
  <!-- Admin Process: Generate Reports -->
  <rect x="470" y="450" width="100" height="40" class="process" />
  <text x="520" y="474" class="text">Generate Laporan</text>
  
  <!-- End -->
  <circle cx="650" cy="100" r="20" class="start-end" />
  <text x="650" y="104" class="text">Selesai</text>
  
  <!-- Arrows -->
  <!-- Customer Flow -->
  <path d="M 120 100 L 170 100" class="arrow" />
  <path d="M 270 100 L 320 100" class="arrow" />
  <path d="M 420 100 L 470 100" class="arrow" />
  <path d="M 570 100 L 630 100" class="arrow" />
  
  <!-- System Flow -->
  <path d="M 520 100 L 520 170 L 220 170 L 220 210" class="arrow" />
  <path d="M 270 230 L 350 230" class="arrow" />
  <path d="M 390 230 L 470 230" class="arrow" />
  <text x="430" y="220" class="text" style="font-size: 8px;">Ya</text>
  
  <!-- Invalid Booking Flow -->
  <path d="M 370 250 L 370 270 L 120 270 L 120 100" class="arrow" />
  <text x="250" y="260" class="text" style="font-size: 8px;">Tidak</text>
  
  <!-- Employee Flow -->
  <path d="M 520 250 L 520 290 L 220 290 L 220 330" class="arrow" />
  <path d="M 270 350 L 350 350" class="arrow" />
  <path d="M 390 350 L 470 350" class="arrow" />
  <text x="430" y="340" class="text" style="font-size: 8px;">Ya</text>
  
  <!-- Rejected Booking Flow -->
  <path d="M 370 370 L 370 390 L 120 390 L 120 100" class="arrow" />
  <text x="250" y="380" class="text" style="font-size: 8px;">Tidak</text>
  
  <!-- Admin Flow -->
  <path d="M 520 370 L 520 410 L 220 410 L 220 450" class="arrow" />
  <path d="M 270 470 L 470 470" class="arrow" />
  
  <!-- Complete Flow -->
  <path d="M 570 470 L 650 470 L 650 120" class="arrow" />
</svg>