<svg xmlns="http://www.w3.org/2000/svg" xmlns:xlink="http://www.w3.org/1999/xlink" width="800" height="600" viewBox="0 0 800 600">
  <!-- Styles -->
  <style>
    .swimlane { fill: #f5f5f5; stroke: #ccc; stroke-width: 1; }
    .swimlane-title { font-family: Arial, sans-serif; font-size: 14px; font-weight: bold; fill: #333; }
    .process { fill: white; stroke: #666; stroke-width: 1.5; rx: 5; ry: 5; }
    .decision { fill: white; stroke: #666; stroke-width: 1.5; }
    .start-end { fill: #e6f7ff; stroke: #1890ff; stroke-width: 1.5; rx: 20; ry: 20; }
    .arrow { stroke: #333; stroke-width: 1.5; fill: none; marker-end: url(#arrowhead); }
    .text { font-family: Arial, sans-serif; font-size: 10px; fill: #333; text-anchor: middle; }
    .title { font-family: Arial, sans-serif; font-size: 18px; font-weight: bold; fill: #333; text-anchor: middle; }
  </style>
  
  <!-- Arrow marker definition -->
  <defs>
    <marker id="arrowhead" markerWidth="10" markerHeight="7" refX="9" refY="3.5" orient="auto">
      <polygon points="0 0, 10 3.5, 0 7" fill="#333" />
    </marker>
  </defs>
  
  <!-- Title -->
  <text x="400" y="30" class="title">Workflow Utama: Proses Pembelian Properti</text>
  
  <!-- Swimlanes -->
  <!-- Customer Swimlane -->
  <rect x="50" y="50" width="700" height="120" class="swimlane" />
  <text x="100" y="70" class="swimlane-title">Customer</text>
  
  <!-- System Swimlane -->
  <rect x="50" y="170" width="700" height="120" class="swimlane" />
  <text x="100" y="190" class="swimlane-title">System</text>
  
  <!-- Bank Officer Swimlane -->
  <rect x="50" y="290" width="700" height="120" class="swimlane" />
  <text x="100" y="310" class="swimlane-title">Bank Officer</text>
  
  <!-- Admin Swimlane -->
  <rect x="50" y="410" width="700" height="120" class="swimlane" />
  <text x="100" y="430" class="swimlane-title">Admin</text>
  
  <!-- Start -->
  <circle cx="100" cy="100" r="20" class="start-end" />
  <text x="100" y="104" class="text">Start</text>
  
  <!-- Customer Process: Browse Properties -->
  <rect x="150" y="80" width="100" height="40" class="process" />
  <text x="200" y="104" class="text">Mencari Properti</text>
  
  <!-- Customer Process: Select Property -->
  <rect x="280" y="80" width="100" height="40" class="process" />
  <text x="330" y="104" class="text">Memilih Properti</text>
  
  <!-- Customer Process: Submit Documents -->
  <rect x="410" y="80" width="100" height="40" class="process" />
  <text x="460" y="104" class="text">Submit Dokumen</text>
  
  <!-- Customer Process: Receive Approval -->
  <rect x="540" y="80" width="100" height="40" class="process" />
  <text x="590" y="104" class="text">Menerima Persetujuan</text>
  
  <!-- System Process: Create Purchase Request -->
  <rect x="150" y="210" width="100" height="40" class="process" />
  <text x="200" y="234" class="text">Buat Request Pembelian</text>
  
  <!-- System Process: Store Documents -->
  <rect x="280" y="210" width="100" height="40" class="process" />
  <text x="330" y="234" class="text">Simpan Dokumen</text>
  
  <!-- System Process: Create Bank Verification -->
  <rect x="410" y="210" width="100" height="40" class="process" />
  <text x="460" y="234" class="text">Buat Verifikasi Bank</text>
  
  <!-- System Process: Update Purchase Status -->
  <rect x="540" y="210" width="100" height="40" class="process" />
  <text x="590" y="234" class="text">Update Status Pembelian</text>
  
  <!-- Bank Officer Process: Review Documents -->
  <rect x="150" y="330" width="100" height="40" class="process" />
  <text x="200" y="354" class="text">Review Dokumen</text>
  
  <!-- Bank Officer Decision: Documents Valid? -->
  <polygon points="330,330 350,350 330,370 310,350" class="decision" />
  <text x="330" y="354" class="text">Dokumen Valid?</text>
  
  <!-- Bank Officer Process: Approve Credit -->
  <rect x="410" y="330" width="100" height="40" class="process" />
  <text x="460" y="354" class="text">Approve Kredit</text>
  
  <!-- Bank Officer Decision: Credit Approved? -->
  <polygon points="590,330 610,350 590,370 570,350" class="decision" />
  <text x="590" y="354" class="text">Kredit Disetujui?</text>
  
  <!-- Admin Process: Monitor Purchases -->
  <rect x="280" y="450" width="100" height="40" class="process" />
  <text x="330" y="474" class="text">Monitor Pembelian</text>
  
  <!-- Admin Process: Finalize Purchase -->
  <rect x="540" y="450" width="100" height="40" class="process" />
  <text x="590" y="474" class="text">Finalisasi Pembelian</text>
  
  <!-- End -->
  <circle cx="700" cy="100" r="20" class="start-end" />
  <text x="700" y="104" class="text">Selesai</text>
  
  <!-- Arrows -->
  <!-- Customer Flow -->
  <path d="M 120 100 L 150 100" class="arrow" />
  <path d="M 250 100 L 280 100" class="arrow" />
  <path d="M 380 100 L 410 100" class="arrow" />
  <path d="M 510 100 L 540 100" class="arrow" />
  <path d="M 640 100 L 680 100" class="arrow" />
  
  <!-- System Flow -->
  <path d="M 330 120 L 330 150 L 200 150 L 200 210" class="arrow" />
  <path d="M 250 230 L 280 230" class="arrow" />
  <path d="M 380 230 L 410 230" class="arrow" />
  <path d="M 510 230 L 540 230" class="arrow" />
  
  <!-- Bank Officer Flow -->
  <path d="M 460 250 L 460 270 L 200 270 L 200 330" class="arrow" />
  <path d="M 250 350 L 310 350" class="arrow" />
  <path d="M 350 350 L 410 350" class="arrow" />
  <text x="380" y="340" class="text" style="font-size: 8px;">Ya</text>
  <path d="M 510 350 L 570 350" class="arrow" />
  
  <!-- Document Rejection Flow -->
  <path d="M 330 370 L 330 390 L 130 390 L 130 100" class="arrow" />
  <text x="230" y="380" class="text" style="font-size: 8px;">Tidak - Revisi Dokumen</text>
  
  <!-- Credit Rejection Flow -->
  <path d="M 590 370 L 590 390 L 130 390 L 130 100" class="arrow" />
  <text x="360" y="380" class="text" style="font-size: 8px;">Tidak - Aplikasi Ditolak</text>
  
  <!-- Admin Flow -->
  <path d="M 610 350 L 650 350 L 650 420 L 330 420 L 330 450" class="arrow" />
  <text x="620" y="340" class="text" style="font-size: 8px;">Ya</text>
  <path d="M 380 470 L 540 470" class="arrow" />
  
  <!-- Complete Flow -->
  <path d="M 590 250 L 590 270 L 700 270 L 700 120" class="arrow" />
  <path d="M 640 470 L 700 470 L 700 120" class="arrow" />
</svg>