<svg xmlns="http://www.w3.org/2000/svg" xmlns:xlink="http://www.w3.org/1999/xlink" width="800" height="600" viewBox="0 0 800 600">
  <!-- Styles -->
  <style>
    .swimlane { fill: #f5f5f5; stroke: #ccc; stroke-width: 1; }
    .swimlane-title { font-family: Arial, sans-serif; font-size: 14px; font-weight: bold; fill: #333; }
    .process { fill: white; stroke: #666; stroke-width: 1.5; rx: 5; ry: 5; }
    .decision { fill: white; stroke: #666; stroke-width: 1.5; }
    .start-end { fill: #e6f7ff; stroke: #1890ff; stroke-width: 1.5; rx: 20; ry: 20; }
    .arrow { stroke: #333; stroke-width: 1.5; fill: none; marker-end: url(#arrowhead); }
    .text { font-family: Arial, sans-serif; font-size: 10px; fill: #333; text-anchor: middle; }
    .title { font-family: Arial, sans-serif; font-size: 18px; font-weight: bold; fill: #333; text-anchor: middle; }
  </style>
  
  <!-- Arrow marker definition -->
  <defs>
    <marker id="arrowhead" markerWidth="10" markerHeight="7" refX="9" refY="3.5" orient="auto">
      <polygon points="0 0, 10 3.5, 0 7" fill="#333" />
    </marker>
  </defs>
  
  <!-- Title -->
  <text x="400" y="30" class="title">Workflow Utama: Manajemen Properti</text>
  
  <!-- Swimlanes -->
  <!-- Admin Swimlane -->
  <rect x="50" y="50" width="700" height="120" class="swimlane" />
  <text x="100" y="70" class="swimlane-title">Admin</text>
  
  <!-- System Swimlane -->
  <rect x="50" y="170" width="700" height="120" class="swimlane" />
  <text x="100" y="190" class="swimlane-title">System</text>
  
  <!-- Employee Swimlane -->
  <rect x="50" y="290" width="700" height="120" class="swimlane" />
  <text x="100" y="310" class="swimlane-title">Employee</text>
  
  <!-- Customer Swimlane -->
  <rect x="50" y="410" width="700" height="120" class="swimlane" />
  <text x="100" y="430" class="swimlane-title">Customer</text>
  
  <!-- Start -->
  <circle cx="100" cy="100" r="20" class="start-end" />
  <text x="100" y="104" class="text">Start</text>
  
  <!-- Admin Process: Create Property -->
  <rect x="150" y="80" width="100" height="40" class="process" />
  <text x="200" y="104" class="text">Buat Properti Baru</text>
  
  <!-- Admin Process: Add Facilities -->
  <rect x="280" y="80" width="100" height="40" class="process" />
  <text x="330" y="104" class="text">Tambah Fasilitas</text>
  
  <!-- Admin Process: Set Availability -->
  <rect x="410" y="80" width="100" height="40" class="process" />
  <text x="460" y="104" class="text">Atur Ketersediaan</text>
  
  <!-- Admin Process: Set Pricing -->
  <rect x="540" y="80" width="100" height="40" class="process" />
  <text x="590" y="104" class="text">Atur Harga</text>
  
  <!-- System Process: Store Property Data -->
  <rect x="150" y="210" width="100" height="40" class="process" />
  <text x="200" y="234" class="text">Simpan Data Properti</text>
  
  <!-- System Process: Update Facility List -->
  <rect x="280" y="210" width="100" height="40" class="process" />
  <text x="330" y="234" class="text">Update Daftar Fasilitas</text>
  
  <!-- System Process: Update Calendar -->
  <rect x="410" y="210" width="100" height="40" class="process" />
  <text x="460" y="234" class="text">Update Kalender</text>
  
  <!-- System Process: Update Price List -->
  <rect x="540" y="210" width="100" height="40" class="process" />
  <text x="590" y="234" class="text">Update Daftar Harga</text>
  
  <!-- Employee Process: Verify Property Data -->
  <rect x="150" y="330" width="100" height="40" class="process" />
  <text x="200" y="354" class="text">Verifikasi Data Properti</text>
  
  <!-- Employee Process: Manage Maintenance -->
  <rect x="280" y="330" width="100" height="40" class="process" />
  <text x="330" y="354" class="text">Kelola Pemeliharaan</text>
  
  <!-- Employee Process: Handle Bookings -->
  <rect x="410" y="330" width="100" height="40" class="process" />
  <text x="460" y="354" class="text">Kelola Booking</text>
  
  <!-- Employee Process: Update Property Status -->
  <rect x="540" y="330" width="100" height="40" class="process" />
  <text x="590" y="354" class="text">Update Status Properti</text>
  
  <!-- Customer Process: View Properties -->
  <rect x="280" y="450" width="100" height="40" class="process" />
  <text x="330" y="474" class="text">Lihat Properti</text>
  
  <!-- Customer Process: Book Property -->
  <rect x="410" y="450" width="100" height="40" class="process" />
  <text x="460" y="474" class="text">Booking Properti</text>
  
  <!-- End -->
  <circle cx="700" cy="100" r="20" class="start-end" />
  <text x="700" y="104" class="text">Selesai</text>
  
  <!-- Arrows -->
  <!-- Admin Flow -->
  <path d="M 120 100 L 150 100" class="arrow" />
  <path d="M 250 100 L 280 100" class="arrow" />
  <path d="M 380 100 L 410 100" class="arrow" />
  <path d="M 510 100 L 540 100" class="arrow" />
  <path d="M 640 100 L 680 100" class="arrow" />
  
  <!-- System Flow -->
  <path d="M 200 120 L 200 210" class="arrow" />
  <path d="M 330 120 L 330 210" class="arrow" />
  <path d="M 460 120 L 460 210" class="arrow" />
  <path d="M 590 120 L 590 210" class="arrow" />
  
  <!-- Employee Flow -->
  <path d="M 200 250 L 200 330" class="arrow" />
  <path d="M 330 250 L 330 330" class="arrow" />
  <path d="M 460 250 L 460 330" class="arrow" />
  <path d="M 590 250 L 590 330" class="arrow" />
  
  <!-- Customer Flow -->
  <path d="M 330 370 L 330 450" class="arrow" />
  <path d="M 380 470 L 410 470" class="arrow" />
  
  <!-- Feedback Flow -->
  <path d="M 460 490 L 460 510 L 590 510 L 590 370" class="arrow" />
  
  <!-- Complete Flow -->
  <path d="M 590 370 L 590 390 L 700 390 L 700 120" class="arrow" />
</svg>